<svg width="1400" height="1000" viewBox="0 0 1400 1000" fill="none" xmlns="http://www.w3.org/2000/svg">
  <defs>
    <filter id="paper" x="-20%" y="-20%" width="140%" height="140%">
      <feTurbulence type="fractalNoise" baseFrequency="0.95" numOctaves="2" stitchTiles="stitch" result="noise"/>
      <feColorMatrix in="noise" type="saturate" values="0" result="mono"/>
      <feComponentTransfer in="mono" result="faded">
        <feFuncA type="table" tableValues="0 0.03"/>
      </feComponentTransfer>
    </filter>
    <filter id="shadow" x="-20%" y="-20%" width="140%" height="140%">
      <feDropShadow dx="0" dy="16" stdDeviation="18" flood-color="#8C7B5A" flood-opacity="0.16"/>
    </filter>
  </defs>

  <rect width="1400" height="1000" rx="30" fill="#F6F0E4"/>
  <rect width="1400" height="1000" rx="30" fill="#000" filter="url(#paper)" opacity="0.9"/>

  <text x="80" y="112" fill="#2F241D" font-family="Inter, Arial, sans-serif" font-size="48" font-weight="800">The four agents</text>
  <text x="80" y="156" fill="#75685B" font-family="Inter, Arial, sans-serif" font-size="22">Styled to match the logo: flat shapes, warm paper, soft overlaps.</text>

  <g filter="url(#shadow)">
    <rect x="80" y="220" width="580" height="300" rx="32" fill="#FBF6ED"/>
    <rect x="740" y="220" width="580" height="300" rx="32" fill="#FBF6ED"/>
    <rect x="80" y="590" width="580" height="300" rx="32" fill="#FBF6ED"/>
    <rect x="740" y="590" width="580" height="300" rx="32" fill="#FBF6ED"/>
  </g>

  <g>
    <circle cx="236" cy="368" r="92" fill="#85C65E" opacity="0.9"/>
    <rect x="174" y="274" width="110" height="110" rx="12" fill="#4A8AC8" opacity="0.9"/>
    <text x="336" y="320" fill="#314528" font-family="Inter, Arial, sans-serif" font-size="32" font-weight="800">Mentor</text>
    <text x="336" y="354" fill="#6B8160" font-family="Inter, Arial, sans-serif" font-size="18">Thinker</text>
    <text x="336" y="410" fill="#605850" font-family="Inter, Arial, sans-serif" font-size="19">Deep thinking, debugging, learning,</text>
    <text x="336" y="440" fill="#605850" font-family="Inter, Arial, sans-serif" font-size="19">and clear long-form conversation.</text>
    <rect x="336" y="464" width="134" height="36" rx="18" fill="#E8F2E1"/>
    <text x="367" y="487" fill="#4A7F39" font-family="Inter, Arial, sans-serif" font-size="15" font-weight="700">understand</text>
  </g>

  <g>
    <path d="M903 274L1093 410H1093V410V464L903 600L713 464V410L903 274Z" fill="#F2CC62" opacity="0.55"/>
    <path d="M950 282L1058 490H842L950 282Z" fill="#DF6949" opacity="0.92"/>
    <text x="1012" y="320" fill="#5A2E22" font-family="Inter, Arial, sans-serif" font-size="32" font-weight="800">Shapeshifter</text>
    <text x="1012" y="354" fill="#9B6A58" font-family="Inter, Arial, sans-serif" font-size="18">Maker</text>
    <text x="1012" y="410" fill="#605850" font-family="Inter, Arial, sans-serif" font-size="19">Fast experiments, prototypes,</text>
    <text x="1012" y="440" fill="#605850" font-family="Inter, Arial, sans-serif" font-size="19">and canvas-style outputs.</text>
    <rect x="1012" y="464" width="112" height="36" rx="18" fill="#FFF0EA"/>
    <text x="1042" y="487" fill="#B25238" font-family="Inter, Arial, sans-serif" font-size="15" font-weight="700">build</text>
  </g>

  <g>
    <path d="M192 650L326 742V860L192 952L58 860V742L192 650Z" fill="#F2CC62" opacity="0.8"/>
    <circle cx="246" cy="778" r="96" fill="#85C65E" opacity="0.88"/>
    <text x="336" y="690" fill="#5B4821" font-family="Inter, Arial, sans-serif" font-size="32" font-weight="800">Keeper</text>
    <text x="336" y="724" fill="#9D8252" font-family="Inter, Arial, sans-serif" font-size="18">Memory</text>
    <text x="336" y="780" fill="#605850" font-family="Inter, Arial, sans-serif" font-size="19">Notes, journaling, wiki upkeep,</text>
    <text x="336" y="810" fill="#605850" font-family="Inter, Arial, sans-serif" font-size="19">and careful filing across the vault.</text>
    <rect x="336" y="834" width="116" height="36" rx="18" fill="#FFF7E4"/>
    <text x="365" y="857" fill="#AA8730" font-family="Inter, Arial, sans-serif" font-size="15" font-weight="700">capture</text>
  </g>

  <g>
    <rect x="832" y="646" width="126" height="126" rx="14" fill="#4A8AC8" opacity="0.92"/>
    <path d="M922 686L1018 848H826L922 686Z" fill="#DF6949" opacity="0.86"/>
    <text x="1012" y="690" fill="#244362" font-family="Inter, Arial, sans-serif" font-size="32" font-weight="800">Tracker</text>
    <text x="1012" y="724" fill="#6583A1" font-family="Inter, Arial, sans-serif" font-size="18">Planner</text>
    <text x="1012" y="780" fill="#605850" font-family="Inter, Arial, sans-serif" font-size="19">Calendar, tasks, reminders,</text>
    <text x="1012" y="810" fill="#605850" font-family="Inter, Arial, sans-serif" font-size="19">and time-aware prioritisation.</text>
    <rect x="1012" y="834" width="124" height="36" rx="18" fill="#EAF2FB"/>
    <text x="1046" y="857" fill="#4473A8" font-family="Inter, Arial, sans-serif" font-size="15" font-weight="700">schedule</text>
  </g>
</svg>
