<svg width="1600" height="900" viewBox="0 0 1600 900" fill="none" xmlns="http://www.w3.org/2000/svg">
  <defs>
    <filter id="paper" x="-20%" y="-20%" width="140%" height="140%">
      <feTurbulence type="fractalNoise" baseFrequency="0.9" numOctaves="2" stitchTiles="stitch" result="noise"/>
      <feColorMatrix in="noise" type="saturate" values="0" result="mono"/>
      <feComponentTransfer in="mono" result="faded">
        <feFuncA type="table" tableValues="0 0.035"/>
      </feComponentTransfer>
    </filter>
    <filter id="shadow" x="-20%" y="-20%" width="140%" height="140%">
      <feDropShadow dx="0" dy="18" stdDeviation="20" flood-color="#8C7B5A" flood-opacity="0.18"/>
    </filter>
    <clipPath id="bounds">
      <rect width="1600" height="900" rx="32"/>
    </clipPath>
  </defs>

  <rect width="1600" height="900" rx="32" fill="#F6F0E4"/>
  <rect width="1600" height="900" rx="32" fill="#000" filter="url(#paper)" opacity="0.9"/>

  <g opacity="0.96" clip-path="url(#bounds)">
    <path d="M1180 116L1403 276V594L1180 754L957 594V276L1180 116Z" fill="#F2CC62"/>
    <rect x="940" y="238" width="176" height="176" rx="10" fill="#4A8AC8"/>
    <path d="M1234 204L1364 516H1104L1234 204Z" fill="#DF6949"/>
    <circle cx="1088" cy="608" r="188" fill="#85C65E"/>
  </g>

  <g filter="url(#shadow)">
    <rect x="78" y="96" width="640" height="708" rx="34" fill="#FBF6ED" fill-opacity="0.92"/>
  </g>

  <text x="120" y="178" fill="#2F241D" font-family="Inter, Arial, sans-serif" font-size="56" font-weight="800">Companions</text>
  <text x="120" y="226" fill="#655446" font-family="Inter, Arial, sans-serif" font-size="26">Four agents. One vault. Your box.</text>
  <text x="120" y="270" fill="#8C7B6E" font-family="Inter, Arial, sans-serif" font-size="18">Self-hosted AI for organisation, creativity, planning, and reflection.</text>

  <g>
    <rect x="120" y="308" width="126" height="38" rx="19" fill="#E8F2E1"/>
    <text x="149" y="332" fill="#4A7F39" font-family="Inter, Arial, sans-serif" font-size="16" font-weight="700">BYO LLM</text>
    <rect x="258" y="308" width="152" height="38" rx="19" fill="#E6EEF7"/>
    <text x="286" y="332" fill="#487DBA" font-family="Inter, Arial, sans-serif" font-size="16" font-weight="700">android + web</text>
    <rect x="422" y="308" width="158" height="38" rx="19" fill="#FFF2D8"/>
    <text x="452" y="332" fill="#B18520" font-family="Inter, Arial, sans-serif" font-size="16" font-weight="700">single owner</text>
  </g>

  <g>
    <rect x="120" y="390" width="256" height="136" rx="28" fill="#EDF5E9"/>
    <circle cx="166" cy="436" r="22" fill="#85C65E"/>
    <text x="205" y="432" fill="#314528" font-family="Inter, Arial, sans-serif" font-size="24" font-weight="800">Mentor</text>
    <text x="205" y="459" fill="#658056" font-family="Inter, Arial, sans-serif" font-size="16">Thinker</text>
    <text x="148" y="492" fill="#5C6457" font-family="Inter, Arial, sans-serif" font-size="15">Deep thinking, learning,</text>
    <text x="148" y="514" fill="#5C6457" font-family="Inter, Arial, sans-serif" font-size="15">debugging, conversations.</text>
  </g>

  <g>
    <rect x="404" y="390" width="256" height="136" rx="28" fill="#FFF0EA"/>
    <path d="M451 415L477 463H425L451 415Z" fill="#DF6949"/>
    <text x="489" y="432" fill="#56291C" font-family="Inter, Arial, sans-serif" font-size="24" font-weight="800">Shapeshifter</text>
    <text x="489" y="459" fill="#996451" font-family="Inter, Arial, sans-serif" font-size="16">Maker</text>
    <text x="432" y="492" fill="#6D625B" font-family="Inter, Arial, sans-serif" font-size="15">Creative experiments,</text>
    <text x="432" y="514" fill="#6D625B" font-family="Inter, Arial, sans-serif" font-size="15">quick builds, prototyping.</text>
  </g>

  <g>
    <rect x="120" y="548" width="256" height="136" rx="28" fill="#FFF7E4"/>
    <path d="M162 408" fill="#000"/>
    <path d="M166 573L189 589V620L166 636L143 620V589L166 573Z" fill="#F2CC62"/>
    <text x="205" y="590" fill="#5B4821" font-family="Inter, Arial, sans-serif" font-size="24" font-weight="800">Keeper</text>
    <text x="205" y="617" fill="#9D8150" font-family="Inter, Arial, sans-serif" font-size="16">Memory</text>
    <text x="148" y="650" fill="#6D655A" font-family="Inter, Arial, sans-serif" font-size="15">Notes, journaling,</text>
    <text x="148" y="672" fill="#6D655A" font-family="Inter, Arial, sans-serif" font-size="15">wiki maintenance.</text>
  </g>

  <g>
    <rect x="404" y="548" width="256" height="136" rx="28" fill="#EAF2FB"/>
    <rect x="428" y="572" width="46" height="46" rx="8" fill="#4A8AC8"/>
    <text x="489" y="590" fill="#203B5B" font-family="Inter, Arial, sans-serif" font-size="24" font-weight="800">Tracker</text>
    <text x="489" y="617" fill="#58779B" font-family="Inter, Arial, sans-serif" font-size="16">Planner</text>
    <text x="432" y="650" fill="#5D6874" font-family="Inter, Arial, sans-serif" font-size="15">Calendar, tasks,</text>
    <text x="432" y="672" fill="#5D6874" font-family="Inter, Arial, sans-serif" font-size="15">scheduling, reminders.</text>
  </g>

  <g filter="url(#shadow)">
    <rect x="792" y="110" width="718" height="350" rx="34" fill="#FBF6ED" fill-opacity="0.82"/>
    <rect x="792" y="480" width="718" height="316" rx="34" fill="#FBF6ED" fill-opacity="0.82"/>
  </g>

  <text x="836" y="164" fill="#31261F" font-family="Inter, Arial, sans-serif" font-size="24" font-weight="800">Shared vault</text>
  <rect x="836" y="190" width="630" height="220" rx="28" fill="#FFFDF8"/>
  <text x="870" y="240" fill="#6C5A4A" font-family="SFMono-Regular, Menlo, monospace" font-size="20">vault/</text>
  <text x="904" y="278" fill="#4A8AC8" font-family="SFMono-Regular, Menlo, monospace" font-size="18">raw/</text>
  <text x="1034" y="278" fill="#74695D" font-family="Inter, Arial, sans-serif" font-size="17">captures, clips, transcripts</text>
  <text x="904" y="309" fill="#DF6949" font-family="SFMono-Regular, Menlo, monospace" font-size="18">wiki/</text>
  <text x="1034" y="309" fill="#74695D" font-family="Inter, Arial, sans-serif" font-size="17">linked knowledge and reference</text>
  <text x="904" y="340" fill="#85C65E" font-family="SFMono-Regular, Menlo, monospace" font-size="18">journal/</text>
  <text x="1034" y="340" fill="#74695D" font-family="Inter, Arial, sans-serif" font-size="17">dated notes and reflections</text>
  <text x="904" y="371" fill="#C99B34" font-family="SFMono-Regular, Menlo, monospace" font-size="18">projects/</text>
  <text x="1034" y="371" fill="#74695D" font-family="Inter, Arial, sans-serif" font-size="17">plans, work, long-form docs</text>

  <text x="836" y="534" fill="#31261F" font-family="Inter, Arial, sans-serif" font-size="24" font-weight="800">Setup and pairing</text>
  <rect x="836" y="562" width="630" height="210" rx="28" fill="#FFFDF8"/>
  <text x="870" y="608" fill="#4A8AC8" font-family="SFMono-Regular, Menlo, monospace" font-size="18">$ npm run setup</text>
  <text x="870" y="644" fill="#5F564F" font-family="Inter, Arial, sans-serif" font-size="18">1. choose provider</text>
  <text x="870" y="674" fill="#5F564F" font-family="Inter, Arial, sans-serif" font-size="18">2. choose vault path</text>
  <text x="870" y="704" fill="#5F564F" font-family="Inter, Arial, sans-serif" font-size="18">3. name personas + emoji</text>
  <text x="870" y="734" fill="#5F564F" font-family="Inter, Arial, sans-serif" font-size="18">4. generate token + QR</text>

  <g transform="translate(1260 580)">
    <rect width="160" height="160" rx="12" fill="#FAF7F0"/>
    <g fill="#2F241D">
      <rect x="14" y="14" width="4" height="4"/>
      <rect x="18" y="14" width="4" height="4"/>
      <rect x="22" y="14" width="4" height="4"/>
      <rect x="26" y="14" width="4" height="4"/>
      <rect x="30" y="14" width="4" height="4"/>
      <rect x="34" y="14" width="4" height="4"/>
      <rect x="38" y="14" width="4" height="4"/>
      <rect x="66" y="14" width="4" height="4"/>
      <rect x="78" y="14" width="4" height="4"/>
      <rect x="82" y="14" width="4" height="4"/>
      <rect x="86" y="14" width="4" height="4"/>
      <rect x="90" y="14" width="4" height="4"/>
      <rect x="94" y="14" width="4" height="4"/>
      <rect x="102" y="14" width="4" height="4"/>
      <rect x="106" y="14" width="4" height="4"/>
      <rect x="110" y="14" width="4" height="4"/>
      <rect x="114" y="14" width="4" height="4"/>
      <rect x="118" y="14" width="4" height="4"/>
      <rect x="122" y="14" width="4" height="4"/>
      <rect x="126" y="14" width="4" height="4"/>
      <rect x="14" y="18" width="4" height="4"/>
      <rect x="38" y="18" width="4" height="4"/>
      <rect x="58" y="18" width="4" height="4"/>
      <rect x="62" y="18" width="4" height="4"/>
      <rect x="66" y="18" width="4" height="4"/>
      <rect x="70" y="18" width="4" height="4"/>
      <rect x="74" y="18" width="4" height="4"/>
      <rect x="78" y="18" width="4" height="4"/>
      <rect x="86" y="18" width="4" height="4"/>
      <rect x="102" y="18" width="4" height="4"/>
      <rect x="126" y="18" width="4" height="4"/>
      <rect x="14" y="22" width="4" height="4"/>
      <rect x="22" y="22" width="4" height="4"/>
      <rect x="26" y="22" width="4" height="4"/>
      <rect x="30" y="22" width="4" height="4"/>
      <rect x="38" y="22" width="4" height="4"/>
      <rect x="46" y="22" width="4" height="4"/>
      <rect x="50" y="22" width="4" height="4"/>
      <rect x="54" y="22" width="4" height="4"/>
      <rect x="62" y="22" width="4" height="4"/>
      <rect x="70" y="22" width="4" height="4"/>
      <rect x="74" y="22" width="4" height="4"/>
      <rect x="90" y="22" width="4" height="4"/>
      <rect x="94" y="22" width="4" height="4"/>
      <rect x="102" y="22" width="4" height="4"/>
      <rect x="110" y="22" width="4" height="4"/>
      <rect x="114" y="22" width="4" height="4"/>
      <rect x="118" y="22" width="4" height="4"/>
      <rect x="126" y="22" width="4" height="4"/>
      <rect x="14" y="26" width="4" height="4"/>
      <rect x="22" y="26" width="4" height="4"/>
      <rect x="26" y="26" width="4" height="4"/>
      <rect x="30" y="26" width="4" height="4"/>
      <rect x="38" y="26" width="4" height="4"/>
      <rect x="46" y="26" width="4" height="4"/>
      <rect x="50" y="26" width="4" height="4"/>
      <rect x="62" y="26" width="4" height="4"/>
      <rect x="66" y="26" width="4" height="4"/>
      <rect x="70" y="26" width="4" height="4"/>
      <rect x="82" y="26" width="4" height="4"/>
      <rect x="90" y="26" width="4" height="4"/>
      <rect x="102" y="26" width="4" height="4"/>
      <rect x="110" y="26" width="4" height="4"/>
      <rect x="114" y="26" width="4" height="4"/>
      <rect x="118" y="26" width="4" height="4"/>
      <rect x="126" y="26" width="4" height="4"/>
      <rect x="14" y="30" width="4" height="4"/>
      <rect x="22" y="30" width="4" height="4"/>
      <rect x="26" y="30" width="4" height="4"/>
      <rect x="30" y="30" width="4" height="4"/>
      <rect x="38" y="30" width="4" height="4"/>
      <rect x="46" y="30" width="4" height="4"/>
      <rect x="54" y="30" width="4" height="4"/>
      <rect x="58" y="30" width="4" height="4"/>
      <rect x="66" y="30" width="4" height="4"/>
      <rect x="78" y="30" width="4" height="4"/>
      <rect x="86" y="30" width="4" height="4"/>
      <rect x="90" y="30" width="4" height="4"/>
      <rect x="94" y="30" width="4" height="4"/>
      <rect x="102" y="30" width="4" height="4"/>
      <rect x="110" y="30" width="4" height="4"/>
      <rect x="114" y="30" width="4" height="4"/>
      <rect x="118" y="30" width="4" height="4"/>
      <rect x="126" y="30" width="4" height="4"/>
      <rect x="14" y="34" width="4" height="4"/>
      <rect x="38" y="34" width="4" height="4"/>
      <rect x="46" y="34" width="4" height="4"/>
      <rect x="66" y="34" width="4" height="4"/>
      <rect x="70" y="34" width="4" height="4"/>
      <rect x="74" y="34" width="4" height="4"/>
      <rect x="94" y="34" width="4" height="4"/>
      <rect x="102" y="34" width="4" height="4"/>
      <rect x="126" y="34" width="4" height="4"/>
      <rect x="14" y="38" width="4" height="4"/>
      <rect x="18" y="38" width="4" height="4"/>
      <rect x="22" y="38" width="4" height="4"/>
      <rect x="26" y="38" width="4" height="4"/>
      <rect x="30" y="38" width="4" height="4"/>
      <rect x="34" y="38" width="4" height="4"/>
      <rect x="38" y="38" width="4" height="4"/>
      <rect x="46" y="38" width="4" height="4"/>
      <rect x="54" y="38" width="4" height="4"/>
      <rect x="62" y="38" width="4" height="4"/>
      <rect x="70" y="38" width="4" height="4"/>
      <rect x="78" y="38" width="4" height="4"/>
      <rect x="86" y="38" width="4" height="4"/>
      <rect x="94" y="38" width="4" height="4"/>
      <rect x="102" y="38" width="4" height="4"/>
      <rect x="106" y="38" width="4" height="4"/>
      <rect x="110" y="38" width="4" height="4"/>
      <rect x="114" y="38" width="4" height="4"/>
      <rect x="118" y="38" width="4" height="4"/>
      <rect x="122" y="38" width="4" height="4"/>
      <rect x="126" y="38" width="4" height="4"/>
      <rect x="46" y="42" width="4" height="4"/>
      <rect x="78" y="42" width="4" height="4"/>
      <rect x="14" y="46" width="4" height="4"/>
      <rect x="22" y="46" width="4" height="4"/>
      <rect x="26" y="46" width="4" height="4"/>
      <rect x="30" y="46" width="4" height="4"/>
      <rect x="34" y="46" width="4" height="4"/>
      <rect x="38" y="46" width="4" height="4"/>
      <rect x="58" y="46" width="4" height="4"/>
      <rect x="66" y="46" width="4" height="4"/>
      <rect x="70" y="46" width="4" height="4"/>
      <rect x="82" y="46" width="4" height="4"/>
      <rect x="102" y="46" width="4" height="4"/>
      <rect x="106" y="46" width="4" height="4"/>
      <rect x="110" y="46" width="4" height="4"/>
      <rect x="114" y="46" width="4" height="4"/>
      <rect x="118" y="46" width="4" height="4"/>
      <rect x="18" y="50" width="4" height="4"/>
      <rect x="22" y="50" width="4" height="4"/>
      <rect x="30" y="50" width="4" height="4"/>
      <rect x="42" y="50" width="4" height="4"/>
      <rect x="50" y="50" width="4" height="4"/>
      <rect x="54" y="50" width="4" height="4"/>
      <rect x="70" y="50" width="4" height="4"/>
      <rect x="78" y="50" width="4" height="4"/>
      <rect x="82" y="50" width="4" height="4"/>
      <rect x="86" y="50" width="4" height="4"/>
      <rect x="90" y="50" width="4" height="4"/>
      <rect x="94" y="50" width="4" height="4"/>
      <rect x="102" y="50" width="4" height="4"/>
      <rect x="106" y="50" width="4" height="4"/>
      <rect x="110" y="50" width="4" height="4"/>
      <rect x="126" y="50" width="4" height="4"/>
      <rect x="22" y="54" width="4" height="4"/>
      <rect x="26" y="54" width="4" height="4"/>
      <rect x="34" y="54" width="4" height="4"/>
      <rect x="38" y="54" width="4" height="4"/>
      <rect x="42" y="54" width="4" height="4"/>
      <rect x="54" y="54" width="4" height="4"/>
      <rect x="62" y="54" width="4" height="4"/>
      <rect x="66" y="54" width="4" height="4"/>
      <rect x="74" y="54" width="4" height="4"/>
      <rect x="78" y="54" width="4" height="4"/>
      <rect x="94" y="54" width="4" height="4"/>
      <rect x="110" y="54" width="4" height="4"/>
      <rect x="22" y="58" width="4" height="4"/>
      <rect x="30" y="58" width="4" height="4"/>
      <rect x="42" y="58" width="4" height="4"/>
      <rect x="46" y="58" width="4" height="4"/>
      <rect x="62" y="58" width="4" height="4"/>
      <rect x="70" y="58" width="4" height="4"/>
      <rect x="74" y="58" width="4" height="4"/>
      <rect x="86" y="58" width="4" height="4"/>
      <rect x="90" y="58" width="4" height="4"/>
      <rect x="114" y="58" width="4" height="4"/>
      <rect x="122" y="58" width="4" height="4"/>
      <rect x="18" y="62" width="4" height="4"/>
      <rect x="22" y="62" width="4" height="4"/>
      <rect x="26" y="62" width="4" height="4"/>
      <rect x="34" y="62" width="4" height="4"/>
      <rect x="38" y="62" width="4" height="4"/>
      <rect x="42" y="62" width="4" height="4"/>
      <rect x="46" y="62" width="4" height="4"/>
      <rect x="50" y="62" width="4" height="4"/>
      <rect x="74" y="62" width="4" height="4"/>
      <rect x="82" y="62" width="4" height="4"/>
      <rect x="94" y="62" width="4" height="4"/>
      <rect x="114" y="62" width="4" height="4"/>
      <rect x="118" y="62" width="4" height="4"/>
      <rect x="14" y="66" width="4" height="4"/>
      <rect x="18" y="66" width="4" height="4"/>
      <rect x="22" y="66" width="4" height="4"/>
      <rect x="34" y="66" width="4" height="4"/>
      <rect x="46" y="66" width="4" height="4"/>
      <rect x="54" y="66" width="4" height="4"/>
      <rect x="58" y="66" width="4" height="4"/>
      <rect x="62" y="66" width="4" height="4"/>
      <rect x="66" y="66" width="4" height="4"/>
      <rect x="78" y="66" width="4" height="4"/>
      <rect x="86" y="66" width="4" height="4"/>
      <rect x="90" y="66" width="4" height="4"/>
      <rect x="94" y="66" width="4" height="4"/>
      <rect x="98" y="66" width="4" height="4"/>
      <rect x="102" y="66" width="4" height="4"/>
      <rect x="106" y="66" width="4" height="4"/>
      <rect x="110" y="66" width="4" height="4"/>
      <rect x="126" y="66" width="4" height="4"/>
      <rect x="22" y="70" width="4" height="4"/>
      <rect x="26" y="70" width="4" height="4"/>
      <rect x="34" y="70" width="4" height="4"/>
      <rect x="38" y="70" width="4" height="4"/>
      <rect x="42" y="70" width="4" height="4"/>
      <rect x="46" y="70" width="4" height="4"/>
      <rect x="66" y="70" width="4" height="4"/>
      <rect x="70" y="70" width="4" height="4"/>
      <rect x="74" y="70" width="4" height="4"/>
      <rect x="94" y="70" width="4" height="4"/>
      <rect x="98" y="70" width="4" height="4"/>
      <rect x="110" y="70" width="4" height="4"/>
      <rect x="114" y="70" width="4" height="4"/>
      <rect x="118" y="70" width="4" height="4"/>
      <rect x="18" y="74" width="4" height="4"/>
      <rect x="30" y="74" width="4" height="4"/>
      <rect x="34" y="74" width="4" height="4"/>
      <rect x="54" y="74" width="4" height="4"/>
      <rect x="66" y="74" width="4" height="4"/>
      <rect x="74" y="74" width="4" height="4"/>
      <rect x="86" y="74" width="4" height="4"/>
      <rect x="90" y="74" width="4" height="4"/>
      <rect x="94" y="74" width="4" height="4"/>
      <rect x="98" y="74" width="4" height="4"/>
      <rect x="102" y="74" width="4" height="4"/>
      <rect x="106" y="74" width="4" height="4"/>
      <rect x="110" y="74" width="4" height="4"/>
      <rect x="122" y="74" width="4" height="4"/>
      <rect x="18" y="78" width="4" height="4"/>
      <rect x="22" y="78" width="4" height="4"/>
      <rect x="26" y="78" width="4" height="4"/>
      <rect x="30" y="78" width="4" height="4"/>
      <rect x="38" y="78" width="4" height="4"/>
      <rect x="54" y="78" width="4" height="4"/>
      <rect x="58" y="78" width="4" height="4"/>
      <rect x="62" y="78" width="4" height="4"/>
      <rect x="70" y="78" width="4" height="4"/>
      <rect x="74" y="78" width="4" height="4"/>
      <rect x="78" y="78" width="4" height="4"/>
      <rect x="82" y="78" width="4" height="4"/>
      <rect x="90" y="78" width="4" height="4"/>
      <rect x="98" y="78" width="4" height="4"/>
      <rect x="106" y="78" width="4" height="4"/>
      <rect x="114" y="78" width="4" height="4"/>
      <rect x="118" y="78" width="4" height="4"/>
      <rect x="14" y="82" width="4" height="4"/>
      <rect x="30" y="82" width="4" height="4"/>
      <rect x="50" y="82" width="4" height="4"/>
      <rect x="58" y="82" width="4" height="4"/>
      <rect x="78" y="82" width="4" height="4"/>
      <rect x="82" y="82" width="4" height="4"/>
      <rect x="86" y="82" width="4" height="4"/>
      <rect x="90" y="82" width="4" height="4"/>
      <rect x="98" y="82" width="4" height="4"/>
      <rect x="102" y="82" width="4" height="4"/>
      <rect x="106" y="82" width="4" height="4"/>
      <rect x="110" y="82" width="4" height="4"/>
      <rect x="118" y="82" width="4" height="4"/>
      <rect x="126" y="82" width="4" height="4"/>
      <rect x="14" y="86" width="4" height="4"/>
      <rect x="22" y="86" width="4" height="4"/>
      <rect x="26" y="86" width="4" height="4"/>
      <rect x="38" y="86" width="4" height="4"/>
      <rect x="50" y="86" width="4" height="4"/>
      <rect x="54" y="86" width="4" height="4"/>
      <rect x="62" y="86" width="4" height="4"/>
      <rect x="74" y="86" width="4" height="4"/>
      <rect x="78" y="86" width="4" height="4"/>
      <rect x="82" y="86" width="4" height="4"/>
      <rect x="94" y="86" width="4" height="4"/>
      <rect x="102" y="86" width="4" height="4"/>
      <rect x="106" y="86" width="4" height="4"/>
      <rect x="110" y="86" width="4" height="4"/>
      <rect x="118" y="86" width="4" height="4"/>
      <rect x="14" y="90" width="4" height="4"/>
      <rect x="22" y="90" width="4" height="4"/>
      <rect x="26" y="90" width="4" height="4"/>
      <rect x="34" y="90" width="4" height="4"/>
      <rect x="42" y="90" width="4" height="4"/>
      <rect x="46" y="90" width="4" height="4"/>
      <rect x="50" y="90" width="4" height="4"/>
      <rect x="54" y="90" width="4" height="4"/>
      <rect x="58" y="90" width="4" height="4"/>
      <rect x="70" y="90" width="4" height="4"/>
      <rect x="74" y="90" width="4" height="4"/>
      <rect x="78" y="90" width="4" height="4"/>
      <rect x="94" y="90" width="4" height="4"/>
      <rect x="98" y="90" width="4" height="4"/>
      <rect x="102" y="90" width="4" height="4"/>
      <rect x="122" y="90" width="4" height="4"/>
      <rect x="14" y="94" width="4" height="4"/>
      <rect x="22" y="94" width="4" height="4"/>
      <rect x="30" y="94" width="4" height="4"/>
      <rect x="34" y="94" width="4" height="4"/>
      <rect x="38" y="94" width="4" height="4"/>
      <rect x="50" y="94" width="4" height="4"/>
      <rect x="58" y="94" width="4" height="4"/>
      <rect x="82" y="94" width="4" height="4"/>
      <rect x="90" y="94" width="4" height="4"/>
      <rect x="94" y="94" width="4" height="4"/>
      <rect x="98" y="94" width="4" height="4"/>
      <rect x="102" y="94" width="4" height="4"/>
      <rect x="106" y="94" width="4" height="4"/>
      <rect x="110" y="94" width="4" height="4"/>
      <rect x="118" y="94" width="4" height="4"/>
      <rect x="122" y="94" width="4" height="4"/>
      <rect x="126" y="94" width="4" height="4"/>
      <rect x="46" y="98" width="4" height="4"/>
      <rect x="50" y="98" width="4" height="4"/>
      <rect x="54" y="98" width="4" height="4"/>
      <rect x="66" y="98" width="4" height="4"/>
      <rect x="70" y="98" width="4" height="4"/>
      <rect x="78" y="98" width="4" height="4"/>
      <rect x="86" y="98" width="4" height="4"/>
      <rect x="94" y="98" width="4" height="4"/>
      <rect x="110" y="98" width="4" height="4"/>
      <rect x="114" y="98" width="4" height="4"/>
      <rect x="118" y="98" width="4" height="4"/>
      <rect x="122" y="98" width="4" height="4"/>
      <rect x="126" y="98" width="4" height="4"/>
      <rect x="14" y="102" width="4" height="4"/>
      <rect x="18" y="102" width="4" height="4"/>
      <rect x="22" y="102" width="4" height="4"/>
      <rect x="26" y="102" width="4" height="4"/>
      <rect x="30" y="102" width="4" height="4"/>
      <rect x="34" y="102" width="4" height="4"/>
      <rect x="38" y="102" width="4" height="4"/>
      <rect x="50" y="102" width="4" height="4"/>
      <rect x="54" y="102" width="4" height="4"/>
      <rect x="66" y="102" width="4" height="4"/>
      <rect x="70" y="102" width="4" height="4"/>
      <rect x="74" y="102" width="4" height="4"/>
      <rect x="78" y="102" width="4" height="4"/>
      <rect x="90" y="102" width="4" height="4"/>
      <rect x="94" y="102" width="4" height="4"/>
      <rect x="102" y="102" width="4" height="4"/>
      <rect x="110" y="102" width="4" height="4"/>
      <rect x="114" y="102" width="4" height="4"/>
      <rect x="118" y="102" width="4" height="4"/>
      <rect x="14" y="106" width="4" height="4"/>
      <rect x="38" y="106" width="4" height="4"/>
      <rect x="46" y="106" width="4" height="4"/>
      <rect x="66" y="106" width="4" height="4"/>
      <rect x="78" y="106" width="4" height="4"/>
      <rect x="90" y="106" width="4" height="4"/>
      <rect x="94" y="106" width="4" height="4"/>
      <rect x="110" y="106" width="4" height="4"/>
      <rect x="126" y="106" width="4" height="4"/>
      <rect x="14" y="110" width="4" height="4"/>
      <rect x="22" y="110" width="4" height="4"/>
      <rect x="26" y="110" width="4" height="4"/>
      <rect x="30" y="110" width="4" height="4"/>
      <rect x="38" y="110" width="4" height="4"/>
      <rect x="46" y="110" width="4" height="4"/>
      <rect x="50" y="110" width="4" height="4"/>
      <rect x="70" y="110" width="4" height="4"/>
      <rect x="82" y="110" width="4" height="4"/>
      <rect x="86" y="110" width="4" height="4"/>
      <rect x="94" y="110" width="4" height="4"/>
      <rect x="98" y="110" width="4" height="4"/>
      <rect x="102" y="110" width="4" height="4"/>
      <rect x="106" y="110" width="4" height="4"/>
      <rect x="110" y="110" width="4" height="4"/>
      <rect x="118" y="110" width="4" height="4"/>
      <rect x="14" y="114" width="4" height="4"/>
      <rect x="22" y="114" width="4" height="4"/>
      <rect x="26" y="114" width="4" height="4"/>
      <rect x="30" y="114" width="4" height="4"/>
      <rect x="38" y="114" width="4" height="4"/>
      <rect x="46" y="114" width="4" height="4"/>
      <rect x="50" y="114" width="4" height="4"/>
      <rect x="54" y="114" width="4" height="4"/>
      <rect x="58" y="114" width="4" height="4"/>
      <rect x="62" y="114" width="4" height="4"/>
      <rect x="66" y="114" width="4" height="4"/>
      <rect x="78" y="114" width="4" height="4"/>
      <rect x="82" y="114" width="4" height="4"/>
      <rect x="86" y="114" width="4" height="4"/>
      <rect x="90" y="114" width="4" height="4"/>
      <rect x="94" y="114" width="4" height="4"/>
      <rect x="114" y="114" width="4" height="4"/>
      <rect x="118" y="114" width="4" height="4"/>
      <rect x="122" y="114" width="4" height="4"/>
      <rect x="126" y="114" width="4" height="4"/>
      <rect x="14" y="118" width="4" height="4"/>
      <rect x="22" y="118" width="4" height="4"/>
      <rect x="26" y="118" width="4" height="4"/>
      <rect x="30" y="118" width="4" height="4"/>
      <rect x="38" y="118" width="4" height="4"/>
      <rect x="46" y="118" width="4" height="4"/>
      <rect x="50" y="118" width="4" height="4"/>
      <rect x="54" y="118" width="4" height="4"/>
      <rect x="58" y="118" width="4" height="4"/>
      <rect x="62" y="118" width="4" height="4"/>
      <rect x="74" y="118" width="4" height="4"/>
      <rect x="78" y="118" width="4" height="4"/>
      <rect x="82" y="118" width="4" height="4"/>
      <rect x="90" y="118" width="4" height="4"/>
      <rect x="94" y="118" width="4" height="4"/>
      <rect x="98" y="118" width="4" height="4"/>
      <rect x="102" y="118" width="4" height="4"/>
      <rect x="106" y="118" width="4" height="4"/>
      <rect x="110" y="118" width="4" height="4"/>
      <rect x="114" y="118" width="4" height="4"/>
      <rect x="118" y="118" width="4" height="4"/>
      <rect x="122" y="118" width="4" height="4"/>
      <rect x="14" y="122" width="4" height="4"/>
      <rect x="38" y="122" width="4" height="4"/>
      <rect x="50" y="122" width="4" height="4"/>
      <rect x="66" y="122" width="4" height="4"/>
      <rect x="94" y="122" width="4" height="4"/>
      <rect x="98" y="122" width="4" height="4"/>
      <rect x="106" y="122" width="4" height="4"/>
      <rect x="114" y="122" width="4" height="4"/>
      <rect x="122" y="122" width="4" height="4"/>
      <rect x="14" y="126" width="4" height="4"/>
      <rect x="18" y="126" width="4" height="4"/>
      <rect x="22" y="126" width="4" height="4"/>
      <rect x="26" y="126" width="4" height="4"/>
      <rect x="30" y="126" width="4" height="4"/>
      <rect x="34" y="126" width="4" height="4"/>
      <rect x="38" y="126" width="4" height="4"/>
      <rect x="46" y="126" width="4" height="4"/>
      <rect x="50" y="126" width="4" height="4"/>
      <rect x="58" y="126" width="4" height="4"/>
      <rect x="66" y="126" width="4" height="4"/>
      <rect x="70" y="126" width="4" height="4"/>
      <rect x="74" y="126" width="4" height="4"/>
      <rect x="82" y="126" width="4" height="4"/>
      <rect x="90" y="126" width="4" height="4"/>
      <rect x="102" y="126" width="4" height="4"/>
      <rect x="106" y="126" width="4" height="4"/>
      <rect x="110" y="126" width="4" height="4"/>
      <rect x="118" y="126" width="4" height="4"/>
    </g>
  </g>
</svg>