<svg width="1600" height="900" viewBox="0 0 1600 900" fill="none" xmlns="http://www.w3.org/2000/svg">
  <defs>
    <filter id="paper" x="-20%" y="-20%" width="140%" height="140%">
      <feTurbulence type="fractalNoise" baseFrequency="0.9" numOctaves="2" stitchTiles="stitch" result="noise"/>
      <feColorMatrix in="noise" type="saturate" values="0" result="mono"/>
      <feComponentTransfer in="mono" result="faded">
        <feFuncA type="table" tableValues="0 0.035"/>
      </feComponentTransfer>
    </filter>
    <filter id="shadow" x="-20%" y="-20%" width="140%" height="140%">
      <feDropShadow dx="0" dy="18" stdDeviation="20" flood-color="#8C7B5A" flood-opacity="0.18"/>
    </filter>
  </defs>

  <rect width="1600" height="900" rx="32" fill="#F6F0E4"/>
  <rect width="1600" height="900" rx="32" fill="#000" filter="url(#paper)" opacity="0.9"/>

  <g opacity="0.96">
    <path d="M1180 116L1403 276V594L1180 754L957 594V276L1180 116Z" fill="#F2CC62"/>
    <rect x="940" y="238" width="176" height="176" rx="10" fill="#4A8AC8"/>
    <path d="M1234 204L1364 516H1104L1234 204Z" fill="#DF6949"/>
    <circle cx="1088" cy="608" r="188" fill="#85C65E"/>
  </g>

  <g filter="url(#shadow)">
    <rect x="78" y="96" width="640" height="708" rx="34" fill="#FBF6ED" fill-opacity="0.92"/>
  </g>

  <text x="120" y="178" fill="#2F241D" font-family="Inter, Arial, sans-serif" font-size="56" font-weight="800">Companions</text>
  <text x="120" y="226" fill="#655446" font-family="Inter, Arial, sans-serif" font-size="26">Four agents. One vault. Your box.</text>
  <text x="120" y="270" fill="#8C7B6E" font-family="Inter, Arial, sans-serif" font-size="18">Self-hosted AI for organisation, creativity, planning, and reflection.</text>

  <g>
    <rect x="120" y="308" width="126" height="38" rx="19" fill="#E8F2E1"/>
    <text x="149" y="332" fill="#4A7F39" font-family="Inter, Arial, sans-serif" font-size="16" font-weight="700">BYO LLM</text>
    <rect x="258" y="308" width="152" height="38" rx="19" fill="#E6EEF7"/>
    <text x="286" y="332" fill="#487DBA" font-family="Inter, Arial, sans-serif" font-size="16" font-weight="700">android + web</text>
    <rect x="422" y="308" width="158" height="38" rx="19" fill="#FFF2D8"/>
    <text x="452" y="332" fill="#B18520" font-family="Inter, Arial, sans-serif" font-size="16" font-weight="700">single owner</text>
  </g>

  <g>
    <rect x="120" y="390" width="256" height="136" rx="28" fill="#EDF5E9"/>
    <circle cx="166" cy="436" r="22" fill="#85C65E"/>
    <text x="205" y="432" fill="#314528" font-family="Inter, Arial, sans-serif" font-size="24" font-weight="800">Mentor</text>
    <text x="205" y="459" fill="#658056" font-family="Inter, Arial, sans-serif" font-size="16">Thinker</text>
    <text x="148" y="492" fill="#5C6457" font-family="Inter, Arial, sans-serif" font-size="15">Deep thinking, learning,</text>
    <text x="148" y="514" fill="#5C6457" font-family="Inter, Arial, sans-serif" font-size="15">debugging, conversations.</text>
  </g>

  <g>
    <rect x="404" y="390" width="256" height="136" rx="28" fill="#FFF0EA"/>
    <path d="M451 415L477 463H425L451 415Z" fill="#DF6949"/>
    <text x="489" y="432" fill="#56291C" font-family="Inter, Arial, sans-serif" font-size="24" font-weight="800">Shapeshifter</text>
    <text x="489" y="459" fill="#996451" font-family="Inter, Arial, sans-serif" font-size="16">Maker</text>
    <text x="432" y="492" fill="#6D625B" font-family="Inter, Arial, sans-serif" font-size="15">Creative experiments,</text>
    <text x="432" y="514" fill="#6D625B" font-family="Inter, Arial, sans-serif" font-size="15">quick builds, prototyping.</text>
  </g>

  <g>
    <rect x="120" y="548" width="256" height="136" rx="28" fill="#FFF7E4"/>
    <path d="M162 408" fill="#000"/>
    <path d="M166 573L189 589V620L166 636L143 620V589L166 573Z" fill="#F2CC62"/>
    <text x="205" y="590" fill="#5B4821" font-family="Inter, Arial, sans-serif" font-size="24" font-weight="800">Keeper</text>
    <text x="205" y="617" fill="#9D8150" font-family="Inter, Arial, sans-serif" font-size="16">Memory</text>
    <text x="148" y="650" fill="#6D655A" font-family="Inter, Arial, sans-serif" font-size="15">Notes, journaling,</text>
    <text x="148" y="672" fill="#6D655A" font-family="Inter, Arial, sans-serif" font-size="15">wiki maintenance.</text>
  </g>

  <g>
    <rect x="404" y="548" width="256" height="136" rx="28" fill="#EAF2FB"/>
    <rect x="428" y="572" width="46" height="46" rx="8" fill="#4A8AC8"/>
    <text x="489" y="590" fill="#203B5B" font-family="Inter, Arial, sans-serif" font-size="24" font-weight="800">Tracker</text>
    <text x="489" y="617" fill="#58779B" font-family="Inter, Arial, sans-serif" font-size="16">Planner</text>
    <text x="432" y="650" fill="#5D6874" font-family="Inter, Arial, sans-serif" font-size="15">Calendar, tasks,</text>
    <text x="432" y="672" fill="#5D6874" font-family="Inter, Arial, sans-serif" font-size="15">scheduling, reminders.</text>
  </g>

  <g filter="url(#shadow)">
    <rect x="792" y="110" width="718" height="314" rx="34" fill="#FBF6ED" fill-opacity="0.82"/>
    <rect x="792" y="466" width="718" height="316" rx="34" fill="#FBF6ED" fill-opacity="0.82"/>
  </g>

  <text x="836" y="164" fill="#31261F" font-family="Inter, Arial, sans-serif" font-size="24" font-weight="800">Shared vault</text>
  <rect x="836" y="190" width="630" height="184" rx="28" fill="#FFFDF8"/>
  <text x="870" y="240" fill="#6C5A4A" font-family="SFMono-Regular, Menlo, monospace" font-size="20">vault/</text>
  <text x="904" y="278" fill="#4A8AC8" font-family="SFMono-Regular, Menlo, monospace" font-size="18">raw/</text>
  <text x="1034" y="278" fill="#74695D" font-family="Inter, Arial, sans-serif" font-size="17">captures, clips, transcripts</text>
  <text x="904" y="309" fill="#DF6949" font-family="SFMono-Regular, Menlo, monospace" font-size="18">wiki/</text>
  <text x="1034" y="309" fill="#74695D" font-family="Inter, Arial, sans-serif" font-size="17">linked knowledge and reference</text>
  <text x="904" y="340" fill="#85C65E" font-family="SFMono-Regular, Menlo, monospace" font-size="18">journal/</text>
  <text x="1034" y="340" fill="#74695D" font-family="Inter, Arial, sans-serif" font-size="17">dated notes and reflections</text>
  <text x="904" y="371" fill="#C99B34" font-family="SFMono-Regular, Menlo, monospace" font-size="18">projects/</text>
  <text x="1034" y="371" fill="#74695D" font-family="Inter, Arial, sans-serif" font-size="17">plans, work, long-form docs</text>

  <text x="836" y="520" fill="#31261F" font-family="Inter, Arial, sans-serif" font-size="24" font-weight="800">Setup and pairing</text>
  <rect x="836" y="548" width="630" height="198" rx="28" fill="#FFFDF8"/>
  <text x="870" y="594" fill="#4A8AC8" font-family="SFMono-Regular, Menlo, monospace" font-size="18">$ npm run setup</text>
  <text x="870" y="630" fill="#5F564F" font-family="Inter, Arial, sans-serif" font-size="18">1. choose provider</text>
  <text x="870" y="660" fill="#5F564F" font-family="Inter, Arial, sans-serif" font-size="18">2. choose vault path</text>
  <text x="870" y="690" fill="#5F564F" font-family="Inter, Arial, sans-serif" font-size="18">3. name personas + emoji</text>
  <text x="870" y="720" fill="#5F564F" font-family="Inter, Arial, sans-serif" font-size="18">4. generate token + QR</text>

  <g transform="translate(1260 572)">
    <rect width="160" height="160" rx="18" fill="#FAF7F0" stroke="#E9DFCF"/>
    <g fill="#2F241D">
      <rect x="14" y="14" width="16" height="16"/>
      <rect x="30" y="14" width="16" height="16"/>
      <rect x="46" y="14" width="16" height="16"/>
      <rect x="14" y="30" width="16" height="16"/>
      <rect x="46" y="30" width="16" height="16"/>
      <rect x="14" y="46" width="16" height="16"/>
      <rect x="30" y="46" width="16" height="16"/>
      <rect x="46" y="46" width="16" height="16"/>
      <rect x="114" y="14" width="16" height="16"/>
      <rect x="130" y="14" width="16" height="16"/>
      <rect x="114" y="30" width="16" height="16"/>
      <rect x="130" y="30" width="16" height="16"/>
      <rect x="14" y="114" width="16" height="16"/>
      <rect x="30" y="114" width="16" height="16"/>
      <rect x="14" y="130" width="16" height="16"/>
      <rect x="30" y="130" width="16" height="16"/>
      <rect x="46" y="130" width="16" height="16"/>
      <rect x="76" y="76" width="16" height="16"/>
      <rect x="92" y="76" width="16" height="16"/>
      <rect x="108" y="76" width="16" height="16"/>
      <rect x="76" y="92" width="16" height="16"/>
      <rect x="108" y="92" width="16" height="16"/>
      <rect x="76" y="108" width="16" height="16"/>
      <rect x="92" y="108" width="16" height="16"/>
      <rect x="108" y="108" width="16" height="16"/>
      <rect x="130" y="114" width="16" height="16"/>
      <rect x="114" y="130" width="16" height="16"/>
      <rect x="130" y="130" width="16" height="16"/>
      <rect x="92" y="30" width="16" height="16"/>
      <rect x="92" y="46" width="16" height="16"/>
      <rect x="114" y="46" width="16" height="16"/>
      <rect x="46" y="76" width="16" height="16"/>
      <rect x="46" y="92" width="16" height="16"/>
      <rect x="30" y="92" width="16" height="16"/>
    </g>
  </g>
</svg>
